<?xml version="1.0" standalone="no"?><!DOCTYPE svg PUBLIC "-//W3C//DTD SVG 1.1//EN" "http://www.w3.org/Graphics/SVG/1.1/DTD/svg11.dtd"><svg t="1685436679002" class="icon" viewBox="0 0 1024 1024" version="1.1" xmlns="http://www.w3.org/2000/svg" p-id="26041" xmlns:xlink="http://www.w3.org/1999/xlink" width="200" height="200"><path d="M74.35 634.76a49 49 0 1 1 94.53-25.59 342.74 342.74 0 0 0 627.63 81.74 49 49 0 1 1 84.8 49 440.66 440.66 0 0 1-807-105.11z m806.89 105.11a49 49 0 1 1-84.73-49 345.46 345.46 0 0 0 31.21-71.75 49 49 0 0 1 93.67 28.59 441.77 441.77 0 0 1-40.08 92.06z m0 0" fill="#07DDCB" p-id="26042"></path><path d="M952.88 585.68q10.17 47.9-37.71 58.07l-159.64 33.94q-47.89 10.19-58.07-37.69t37.71-58.07L894.81 548q47.9-10.17 58.07 37.71z m0 0" fill="#07DDCB" p-id="26043"></path><path d="M888.75 550.79q46-16.75 62.76 29.26l55.81 153.36q16.75 46-29.26 62.76t-62.75-29.26l-55.82-153.37q-16.75-46 29.26-62.75z m0 0" fill="#07DDCB" p-id="26044"></path><path d="M926.22 367.83a49 49 0 0 1-93 30.55 342.73 342.73 0 0 0-631-48.77 49 49 0 0 1-87.29-44.46 440.66 440.66 0 0 1 811.33 62.68z m-811.33-62.68a49 49 0 0 1 87.22 44.4 349.53 349.53 0 0 0-27.42 73.31 49 49 0 0 1-95-23.64 438.66 438.66 0 0 1 35.18-94.07z m0 0" fill="#0AC0ED" p-id="26045"></path><path d="M76 419.87q-8.51-48.21 39.71-56.72l160.73-28.34q48.21-8.49 56.72 39.72t-39.72 56.72l-160.77 28.34Q84.45 468.1 76 419.87z m0 0" fill="#0AC0ED" p-id="26046"></path><path d="M126.71 455.25Q80.15 470.37 65 423.81L14.58 268.59Q-0.54 222 46 206.9t61.7 31.43l50.43 155.22q15.14 46.57-31.44 61.7z m0 0" fill="#0AC0ED" p-id="26047"></path></svg>